<svg width="314" height="402" xmlns="http://www.w3.org/2000/svg">
 <!-- Created with SVG Editor - http://github.com/mzalive/SVG Editor/ -->
 <defs>
  <linearGradient id="svg_8" x1="0" y1="0" x2="1" y2="0">
   <stop stop-color="#3f2d87" offset="0"/>
   <stop stop-color="#ff4c94" offset="1"/>
  </linearGradient>
 </defs>
 <g>
  <title>background</title>
  <rect x="-1" y="-1" width="316" height="404" id="canvas_background" fill="none"/>
 </g>
 <g>
  <title>Layer 1</title>
  <g id="svg_1" stroke="null">
   <g id="svg_2" stroke="null">
    <path d="m55.42379,135.4208c-2.73867,-9.27412 -5.36841,-18.56381 -7.34461,-27.46448c-12.99311,-7.68694 -21.83154,-21.67593 -21.83154,-37.84341c0,-24.32123 19.77754,-44.08321 44.08321,-44.08321s44.08321,19.77754 44.08321,44.08321c0,3.34553 -0.45126,6.56658 -1.15149,9.69426c4.21693,9.28968 7.6247,19.74642 10.61234,30.37431c8.40273,-11.20364 13.56885,-24.97478 13.56885,-40.06857c0,-37.08094 -30.03198,-67.11291 -67.11291,-67.11291s-67.09735,30.03198 -67.09735,67.11291c0,31.93037 22.32948,58.52346 52.19029,65.30788l0,0.00001z" fill="url(#svg_8)" id="svg_3" stroke="null"/>
    <path d="m9.06873,294.31019c16.54093,-17.87914 35.10474,-10.87687 59.95503,-7.09564c21.34916,3.28329 42.37154,-2.70755 40.97109,-14.23796c-2.20961,-18.65717 -5.32173,-26.99766 -12.40181,-51.16329c-5.6485,-19.21735 -16.36976,-53.85527 -26.12627,-86.96825c-13.07091,-44.30106 -16.85214,-64.87219 0.54462,-70.00719c18.75054,-5.46177 29.50292,21.17799 39.24386,58.11888c11.09472,42.04477 16.92994,60.60858 20.19767,59.62826c5.75743,-1.64942 -2.11624,-19.63749 12.94643,-24.07226c18.82834,-5.47733 22.46952,9.243 27.74457,7.76474c5.27505,-1.58718 3.48558,-16.49425 18.50157,-20.88234c15.09379,-4.35697 22.67181,14.2224 28.89605,12.37069c6.162,-1.82059 6.02196,-8.52721 15.3272,-11.18808c9.32081,-2.76979 44.39442,12.93087 64.46761,81.50648c25.19263,86.22134 -3.18993,102.24877 5.41509,131.44048l-112.45653,42.76056c-9.10296,-21.89378 -37.29878,-23.51208 -62.24244,-37.46995c-25.13039,-14.1446 -42.20038,-41.70244 -107.69499,-40.36422c-24.63245,0.49794 -23.4654,-19.13955 -13.28876,-30.1409l0.00001,-0.00001z" fill="url(#svg_8)" id="svg_4" stroke="null"/>
   </g>
  </g>
 </g>
</svg>